<svg width="76" height="79" viewBox="0 0 76 79" fill="none" xmlns="http://www.w3.org/2000/svg">
<path d="M5.16004 1.99246C0.821939 4.49705 -0.680281 10.1031 1.82436 14.4412L17.5057 41.6018C14.759 39.6661 10.918 38.0772 7.76233 38.965C3.43266 40.1098 0.5764 45.7511 1.54069 49.8326C2.12837 52.0787 3.74888 54.085 6.35536 56.1783C18.5964 65.5437 31.7384 73.7329 44.6033 78.2842C45.214 78.4943 45.914 78.4284 46.4747 78.1081L73.1106 62.7298C73.5282 62.4835 73.8627 62.0994 74.0506 61.6527C75.676 57.9092 75.8959 53.0039 75.3305 47.6367C74.7654 42.2694 73.3597 36.4762 71.3143 31.2114C69.2689 25.9466 66.6522 21.4214 63.281 18.0096C60.0274 14.7166 55.4278 13.0686 51.0722 14.9466C50.1082 15.4978 49.1411 16.1681 48.3959 16.8614C47.1913 15.9436 45.8862 15.3212 44.6444 15.2047C42.5648 15.0095 40.8729 15.5467 39.6685 16.2688C38.5122 16.9624 37.6932 18.0022 37.134 19.212C36.3355 18.8093 35.5096 18.3872 34.7189 18.3043C32.6429 18.0866 30.9172 18.6906 29.6815 19.4041C28.6593 19.9942 27.8337 20.8488 27.1134 21.791L17.6086 5.32814C14.476 0.0958281 8.79791 -0.121363 5.16004 1.99246ZM7.43833 5.93859C9.65853 4.65671 12.3807 5.38619 13.6625 7.6065L25.6238 28.3237C26.1272 29.2254 27.2951 29.6946 28.2823 29.3914C29.2695 29.0882 29.973 28.0443 29.8834 27.0155C29.7957 25.8577 30.8932 23.9661 31.9598 23.3503C32.4388 23.0738 33.4419 22.7599 34.2581 22.8454C35.0743 22.931 35.7986 23.1644 36.6281 24.6011C37.1345 25.4782 38.2761 25.9303 39.2471 25.6423C40.2181 25.3543 40.9265 24.3529 40.8746 23.3415C40.7504 21.2737 41.0303 20.7662 42.0085 20.1794C42.2789 20.0167 43.3418 19.6461 44.2139 19.728C45.0862 19.8098 45.8383 20.0488 46.646 21.448C47.0798 22.2221 48.0037 22.6888 48.8854 22.5886C49.7671 22.4884 50.5587 21.8252 50.8119 20.9747C51.3471 20.174 52.0162 19.6385 52.9803 19.1062C55.5054 18.0473 57.5777 18.8165 60.1122 21.2778C62.6699 23.7617 65.1527 27.9895 67.043 32.8552C68.9335 37.7209 70.2803 43.1989 70.7981 48.116C71.2837 52.7276 70.9387 56.7471 70.0308 59.2464L45.152 73.6101C33.5095 69.4386 19.6531 60.7113 9.23605 52.6242C7.00503 50.8325 6.15846 49.5527 5.93792 48.6914C5.56735 46.3609 6.99114 44.1023 8.90343 43.3621C11.4573 42.941 12.785 44.0406 14.607 45.1249L23.061 50.7258C23.9111 51.2764 25.1325 51.1637 25.8674 50.4668C26.6024 49.7699 26.7797 48.5564 26.2751 47.6781L5.77049 12.1629C4.48861 9.94267 5.21813 7.22047 7.43833 5.93859Z" fill="white"/>
<path d="M5.16004 1.99246C0.821939 4.49705 -0.680281 10.1031 1.82436 14.4412L17.5057 41.6018C14.759 39.6661 10.918 38.0772 7.76233 38.965C3.43266 40.1098 0.5764 45.7511 1.54069 49.8326C2.12837 52.0787 3.74888 54.085 6.35536 56.1783C18.5964 65.5437 31.7384 73.7329 44.6033 78.2842C45.214 78.4943 45.914 78.4284 46.4747 78.1081L73.1106 62.7298C73.5282 62.4835 73.8627 62.0994 74.0506 61.6527C75.676 57.9092 75.8959 53.0039 75.3305 47.6367C74.7654 42.2694 73.3597 36.4762 71.3143 31.2114C69.2689 25.9466 66.6522 21.4214 63.281 18.0096C60.0274 14.7166 55.4278 13.0686 51.0722 14.9466C50.1082 15.4978 49.1411 16.1681 48.3959 16.8614C47.1913 15.9436 45.8862 15.3212 44.6444 15.2047C42.5648 15.0095 40.8729 15.5467 39.6685 16.2688C38.5122 16.9624 37.6932 18.0022 37.134 19.212C36.3355 18.8093 35.5096 18.3872 34.7189 18.3043C32.6429 18.0866 30.9172 18.6906 29.6815 19.4041C28.6593 19.9942 27.8337 20.8488 27.1134 21.791L17.6086 5.32814C14.476 0.0958281 8.79791 -0.121363 5.16004 1.99246ZM7.43833 5.93859C9.65853 4.65671 12.3807 5.38619 13.6625 7.6065L25.6238 28.3237C26.1272 29.2254 27.2951 29.6946 28.2823 29.3914C29.2695 29.0882 29.973 28.0443 29.8834 27.0155C29.7957 25.8577 30.8932 23.9661 31.9598 23.3503C32.4388 23.0738 33.4419 22.7599 34.2581 22.8454C35.0743 22.931 35.7986 23.1644 36.6281 24.6011C37.1345 25.4782 38.2761 25.9303 39.2471 25.6423C40.2181 25.3543 40.9265 24.3529 40.8746 23.3415C40.7504 21.2737 41.0303 20.7662 42.0085 20.1794C42.2789 20.0167 43.3418 19.6461 44.2139 19.728C45.0862 19.8098 45.8383 20.0488 46.646 21.448C47.0798 22.2221 48.0037 22.6888 48.8854 22.5886C49.7671 22.4884 50.5587 21.8252 50.8119 20.9747C51.3471 20.174 52.0162 19.6385 52.9803 19.1062C55.5054 18.0473 57.5777 18.8165 60.1122 21.2778C62.6699 23.7617 65.1527 27.9895 67.043 32.8552C68.9335 37.7209 70.2803 43.1989 70.7981 48.116C71.2837 52.7276 70.9387 56.7471 70.0308 59.2464L45.152 73.6101C33.5095 69.4386 19.6531 60.7113 9.23605 52.6242C7.00503 50.8325 6.15846 49.5527 5.93792 48.6914C5.56735 46.3609 6.99114 44.1023 8.90343 43.3621C11.4573 42.941 12.785 44.0406 14.607 45.1249L23.061 50.7258C23.9111 51.2764 25.1325 51.1637 25.8674 50.4668C26.6024 49.7699 26.7797 48.5564 26.2751 47.6781L5.77049 12.1629C4.48861 9.94267 5.21813 7.22047 7.43833 5.93859Z" fill="white"/>
<path d="M7.43833 5.93859C9.65853 4.65671 12.3807 5.38619 13.6625 7.6065L25.6238 28.3237C26.1272 29.2254 27.2951 29.6946 28.2823 29.3914C29.2695 29.0882 29.973 28.0443 29.8834 27.0155C29.7957 25.8577 30.8932 23.9661 31.9598 23.3503C32.4388 23.0738 33.4419 22.7599 34.2581 22.8454C35.0743 22.931 35.7986 23.1644 36.6281 24.6011C37.1345 25.4782 38.2761 25.9303 39.2471 25.6423C40.2181 25.3543 40.9265 24.3529 40.8746 23.3415C40.7504 21.2737 41.0303 20.7662 42.0085 20.1794C42.2789 20.0167 43.3418 19.6461 44.2139 19.728C45.0862 19.8098 45.8383 20.0488 46.646 21.448C47.0798 22.2221 48.0037 22.6888 48.8854 22.5886C49.7671 22.4884 50.5587 21.8252 50.8119 20.9747C51.3471 20.174 52.0162 19.6385 52.9803 19.1062C55.5054 18.0473 57.5777 18.8165 60.1122 21.2778C62.6699 23.7617 65.1527 27.9895 67.043 32.8552C68.9335 37.7209 70.2803 43.1989 70.7981 48.116C71.2837 52.7276 70.9387 56.7471 70.0308 59.2464L45.152 73.6101C33.5095 69.4386 19.6531 60.7113 9.23605 52.6242C7.00503 50.8325 6.15846 49.5527 5.93792 48.6914C5.56735 46.3609 6.99114 44.1023 8.90343 43.3621C11.4573 42.941 12.785 44.0406 14.607 45.1249L23.061 50.7258C23.9111 51.2764 25.1325 51.1637 25.8674 50.4668C26.6024 49.7699 26.7797 48.5564 26.2751 47.6781L5.77049 12.1629C4.48861 9.94267 5.21813 7.22047 7.43833 5.93859Z" fill="white" fill-opacity="0.42"/>
</svg>
