<svg width="61" height="20" viewBox="0 0 61 20" fill="none" xmlns="http://www.w3.org/2000/svg">
<path d="M59.7825 12.5072C60.9656 11.465 61.1123 9.66715 60.07 8.48404L54.5075 1.8891C53.4653 0.705993 51.6674 0.55935 50.4843 1.6016C49.3012 2.64385 49.1545 4.4417 50.1968 5.6248L51.4557 7.01878C34.8007 5.406 18.485 6.73895 2.76623 11.0997C1.23184 11.4626 0.441044 13.0553 0.803919 14.5897C1.07318 15.5268 1.85196 16.2004 2.75378 16.4875C3.26911 16.6515 3.82544 16.6867 4.29396 16.5521C19.2456 12.3728 35.0049 11.0046 50.9337 12.67L49.3699 14.0167C48.1868 15.059 48.0401 16.8568 49.0824 18.0399C49.3869 18.4206 49.8612 18.7135 50.3765 18.8775C51.2783 19.1646 52.3032 19.0652 53.1056 18.3274L59.7825 12.5072Z" fill="white"/>
</svg>
