<svg width="61" height="20" viewBox="0 0 61 20" fill="none" xmlns="http://www.w3.org/2000/svg">
<path d="M1.10661 12.5072C-0.0764939 11.465 -0.22315 9.66712 0.819099 8.48401L6.38161 1.88907C7.42386 0.705962 9.22172 0.55932 10.4048 1.60157C11.5879 2.64382 11.7346 4.44166 10.6923 5.62477L9.43343 7.01875C26.0884 5.40597 42.4041 6.73892 58.1229 11.0997C59.6573 11.4625 60.4481 13.0553 60.0852 14.5897C59.8159 15.5267 59.0372 16.2004 58.1353 16.4874C57.62 16.6515 57.0637 16.6867 56.5952 16.552C41.6436 12.3727 25.8842 11.0046 9.95543 12.67L11.5192 14.0167C12.7023 15.0589 12.849 16.8568 11.8067 18.0399C11.5023 18.4206 11.028 18.7135 10.5126 18.8775C9.61081 19.1646 8.58595 19.0652 7.78354 18.3274L1.10661 12.5072Z" fill="white"/>
</svg>
